<svg width="1240" height="940" viewBox="0 0 1240 940" fill="none" xmlns="http://www.w3.org/2000/svg">
<g clip-path="url(#clip0_1133_97)">
<rect width="1240" height="940" fill="#F2F2F8"/>
<mask id="path-1-inside-1_1133_97" fill="white">
<path d="M0 0H1280V48H0V0Z"/>
</mask>
<path d="M0 0H1280V48H0V0Z" fill="white"/>
<path d="M1280 48V47H0V48V49H1280V48Z" fill="#C6C5D3" mask="url(#path-1-inside-1_1133_97)"/>
<path d="M1207.97 31.7269C1207.71 32.1826 1207.35 32.33 1206.83 32.2863C1206.23 32.2351 1205.62 32.2744 1205.02 32.2744C1204.95 32.2744 1204.89 32.2744 1204.78 32.2744C1207.6 28.8787 1210.39 25.5202 1213.19 22.1543C1212.49 21.314 1211.8 20.4846 1211.1 19.6412C1211.05 19.6889 1211.01 19.7276 1210.98 19.7711C1207.62 23.876 1204.26 27.9807 1200.91 32.0891C1200.79 32.2288 1200.68 32.2803 1200.5 32.2783C1199.69 32.2693 1198.88 32.2743 1198.03 32.2743C1198.07 32.2123 1198.1 32.1691 1198.13 32.1318C1202.38 26.952 1206.63 21.772 1210.88 16.5959C1211.03 16.4191 1211.1 16.2479 1211.09 16.0146C1211.07 15.5425 1211.09 15.0693 1211.09 14.5658C1210.8 14.5658 1210.53 14.595 1210.26 14.5593C1209.8 14.4979 1209.51 14.6836 1209.22 15.0414C1204.5 20.7441 1199.76 26.4327 1195.03 32.127C1194.94 32.2368 1194.85 32.2788 1194.71 32.2775C1193.94 32.2708 1193.16 32.2744 1192.39 32.2744C1192.33 32.2744 1192.27 32.2744 1192.17 32.2744C1197.09 26.3544 1201.98 20.469 1206.88 14.5691C1206.19 13.7356 1205.5 12.9047 1204.79 12.0478C1207.61 12.0478 1210.39 12.0478 1213.19 12.0478C1213.19 12.8624 1213.19 13.6769 1213.19 14.4914C1213.21 14.4981 1213.22 14.5047 1213.24 14.5113C1214.62 12.8509 1216 11.1905 1217.39 9.51364C1216.7 8.68129 1216.01 7.85366 1215.3 7C1218.12 7 1220.9 7 1223.7 7C1223.7 9.51328 1223.7 12.0208 1223.7 14.5555C1225.8 14.5555 1227.9 14.5555 1230 14.5555C1230 17.9268 1230 21.271 1230 24.6785C1229.29 23.8208 1228.61 23.0019 1227.91 22.1684C1227.87 22.2173 1227.83 22.2578 1227.79 22.3024C1225.12 25.5612 1222.46 28.8198 1219.79 32.0818C1219.68 32.2187 1219.57 32.2816 1219.39 32.279C1218.61 32.268 1217.82 32.2744 1217.03 32.2745C1217 32.2745 1216.97 32.2745 1216.89 32.2745C1217.69 31.3042 1218.46 30.3689 1219.23 29.425C1218.62 28.6878 1218.01 27.9582 1217.4 27.2174C1216.79 27.9462 1216.2 28.6565 1215.61 29.367C1214.84 30.2905 1214.07 31.2129 1213.31 32.1395C1213.23 32.237 1213.15 32.2785 1213.02 32.2776C1212.18 32.2714 1211.34 32.2744 1210.46 32.2744C1210.53 32.1931 1210.57 32.1365 1210.61 32.0829C1212.83 29.4156 1215.05 26.7493 1217.26 24.0778C1217.33 23.9848 1217.38 23.8412 1217.39 23.7195C1217.4 23.2073 1217.39 22.6945 1217.39 22.1567C1216.91 22.1567 1216.44 22.1528 1215.97 22.1622C1215.92 22.1633 1215.86 22.2351 1215.82 22.2848C1214.09 24.3642 1212.36 26.4449 1210.63 28.5255C1209.75 29.5889 1208.86 30.6524 1207.97 31.7269ZM1226.11 21.052C1226.63 20.4159 1227.15 19.7741 1227.68 19.1471C1227.84 18.9552 1227.91 18.764 1227.9 18.5109C1227.89 18.0475 1227.9 17.5827 1227.9 17.1026C1227.46 17.1026 1227.05 17.1086 1226.63 17.0993C1226.49 17.0962 1226.4 17.1393 1226.31 17.2494C1224.08 19.9389 1221.84 22.6246 1219.61 25.3152C1219.55 25.3939 1219.51 25.5188 1219.51 25.6225C1219.5 26.7045 1219.5 27.7865 1219.5 28.8686C1219.5 28.9246 1219.51 28.9806 1219.52 29.0797C1221.73 26.3883 1223.91 23.7311 1226.11 21.052ZM1217.15 13.0982C1215.88 14.6339 1214.6 16.1694 1213.32 17.7063C1213.27 17.7664 1213.2 17.8397 1213.2 17.9079C1213.19 18.4738 1213.2 19.0401 1213.2 19.6265C1213.63 19.6265 1214.03 19.6197 1214.44 19.6301C1214.6 19.634 1214.7 19.5848 1214.8 19.4637C1216.88 16.9495 1218.96 14.4295 1221.07 11.9371C1221.46 11.4799 1221.68 11.0372 1221.6 10.4352C1221.57 10.1381 1221.6 9.83193 1221.6 9.51461C1221.15 9.51461 1220.73 9.52004 1220.3 9.51134C1220.17 9.50868 1220.1 9.55327 1220.02 9.65046C1219.07 10.7944 1218.12 11.9345 1217.15 13.0982ZM1223.61 16.9907C1222.94 16.1892 1222.28 15.3877 1221.6 14.5755C1220.2 16.2606 1218.81 17.9256 1217.4 19.6324C1218.13 19.6324 1218.81 19.6324 1219.51 19.6324C1219.51 20.4626 1219.51 21.2743 1219.51 22.1299C1219.58 22.0441 1219.62 21.996 1219.67 21.9458C1220.23 21.2717 1220.79 20.5974 1221.35 19.923C1222.09 19.0257 1222.84 18.1286 1223.59 17.2302C1223.64 17.1693 1223.74 17.1108 1223.61 16.9907Z" fill="#040037"/>
<path d="M1222.84 36.9162C1222.84 35.7143 1222.84 34.5327 1222.84 33.3355C1223.18 33.3355 1223.5 33.3281 1223.82 33.3424C1223.88 33.3449 1223.95 33.4295 1223.98 33.4922C1224.46 34.4228 1224.93 35.3562 1225.4 36.2888C1225.43 36.3467 1225.46 36.4031 1225.51 36.4828C1225.67 36.1436 1225.83 35.8251 1225.99 35.5057C1226.33 34.8286 1226.66 34.1503 1227 33.4751C1227.03 33.4185 1227.09 33.3436 1227.14 33.3417C1227.47 33.3295 1227.79 33.3355 1228.13 33.3355C1228.13 35.1649 1228.13 36.9799 1228.13 38.8075C1227.75 38.8075 1227.36 38.8075 1226.95 38.8075C1226.95 37.8746 1226.95 36.9507 1226.95 36.0267C1226.94 36.0227 1226.93 36.0187 1226.91 36.0147C1226.89 36.054 1226.86 36.0917 1226.84 36.1329C1226.52 36.7854 1226.19 37.4365 1225.87 38.0928C1225.8 38.2318 1225.73 38.2769 1225.57 38.2908C1225.29 38.3156 1225.14 38.2206 1225.02 37.959C1224.73 37.3239 1224.39 36.7072 1224.04 36.0876C1224.04 36.9913 1224.04 37.8951 1224.04 38.8093C1223.63 38.8093 1223.25 38.8093 1222.84 38.8093C1222.84 38.1862 1222.84 37.5613 1222.84 36.9162Z" fill="#040037"/>
<path d="M1193.68 33.3353C1194.07 33.3579 1194.45 33.3352 1194.8 33.4118C1195.84 33.6342 1196.54 34.4751 1196.67 35.5699C1196.73 36.0724 1196.72 36.57 1196.57 37.055C1196.25 38.0649 1195.58 38.6918 1194.53 38.7825C1193.7 38.8545 1192.85 38.797 1192 38.797C1192 36.9916 1192 35.1779 1192 33.3353C1192.55 33.3353 1193.11 33.3353 1193.68 33.3353ZM1194.14 37.574C1194.76 37.5462 1195.22 37.1943 1195.32 36.5863C1195.38 36.2485 1195.38 35.8829 1195.32 35.5448C1195.24 35.0828 1194.95 34.7292 1194.48 34.6346C1194.09 34.5577 1193.69 34.5784 1193.29 34.5554C1193.29 35.5859 1193.29 36.5701 1193.29 37.576C1193.57 37.576 1193.84 37.576 1194.14 37.574Z" fill="#040037"/>
<path d="M1213.25 38.5755C1213.25 36.8253 1213.25 35.0948 1213.25 33.3497C1214.44 33.3497 1215.63 33.3497 1216.82 33.3497C1216.82 33.7412 1216.82 34.1237 1216.82 34.5299C1216.06 34.5299 1215.31 34.5299 1214.54 34.5299C1214.54 34.8472 1214.54 35.1411 1214.54 35.4532C1215.21 35.4532 1215.87 35.4532 1216.54 35.4532C1216.54 35.8455 1216.54 36.2199 1216.54 36.6143C1215.88 36.6143 1215.22 36.6143 1214.54 36.6143C1214.54 36.9536 1214.54 37.2733 1214.54 37.6132C1215.33 37.6132 1216.11 37.6132 1216.91 37.6132C1216.91 38.0211 1216.91 38.409 1216.91 38.8086C1215.69 38.8086 1214.49 38.8086 1213.25 38.8086C1213.25 38.7374 1213.25 38.6663 1213.25 38.5755Z" fill="#040037"/>
<path d="M1206.12 36.0766C1205.7 36.9086 1205.29 37.7273 1204.87 38.5458C1204.67 38.9332 1204.42 39.0744 1204.13 38.9632C1203.82 38.8428 1203.64 38.4321 1203.75 38.0581C1203.78 37.9812 1203.81 37.9076 1203.85 37.8356C1204.52 36.5051 1205.2 35.1751 1205.87 33.845C1205.89 33.8089 1205.9 33.7719 1205.92 33.7367C1206.03 33.5417 1206.19 33.4075 1206.42 33.4052C1206.66 33.4028 1206.82 33.5351 1206.93 33.7425C1207.2 34.2772 1207.47 34.813 1207.74 35.3487C1208.17 36.1913 1208.6 37.0348 1209.03 37.8763C1209.13 38.0916 1209.17 38.3119 1209.09 38.5419C1209.01 38.7817 1208.86 38.9599 1208.6 38.9902C1208.33 39.0209 1208.15 38.878 1208.03 38.6495C1207.7 38.0007 1207.37 37.3499 1207.05 36.7C1206.85 36.305 1206.64 35.9101 1206.43 35.4809C1206.32 35.6975 1206.22 35.8804 1206.12 36.0766Z" fill="#040037"/>
<path d="M1196.63 38.8739C1196.35 38.5854 1196.29 38.2523 1196.46 37.9151C1197.16 36.5231 1197.87 35.1334 1198.57 33.7438C1198.68 33.537 1198.84 33.4037 1199.08 33.4056C1199.31 33.4074 1199.47 33.5368 1199.57 33.7358C1200.29 35.1368 1201 36.5364 1201.7 37.9459C1201.78 38.1053 1201.77 38.3291 1201.74 38.5139C1201.7 38.7777 1201.48 38.9658 1201.26 38.9915C1201.01 39.0196 1200.81 38.9037 1200.68 38.6391C1200.37 38.0446 1200.07 37.4477 1199.77 36.8521C1199.55 36.4078 1199.32 35.964 1199.08 35.49C1199.03 35.5757 1199 35.6348 1198.96 35.6963C1198.48 36.6468 1198 37.598 1197.52 38.5477C1197.47 38.6431 1197.42 38.7409 1197.35 38.8196C1197.16 39.0321 1196.91 39.0492 1196.63 38.8739Z" fill="#040037"/>
<path d="M1221.36 38.4162C1220.87 37.4399 1220.38 36.4775 1219.88 35.4892C1219.84 35.5584 1219.81 35.6074 1219.78 35.659C1219.29 36.6335 1218.8 37.6086 1218.3 38.5829C1218.13 38.9133 1217.91 39.0486 1217.64 38.9828C1217.37 38.9179 1217.16 38.625 1217.18 38.2962C1217.18 38.1525 1217.22 37.9992 1217.29 37.8708C1217.97 36.5077 1218.66 35.1492 1219.35 33.7885C1219.46 33.5689 1219.61 33.4081 1219.87 33.4058C1220.13 33.4034 1220.29 33.5605 1220.4 33.7805C1221.09 35.153 1221.79 36.5245 1222.48 37.8973C1222.62 38.1622 1222.62 38.4332 1222.47 38.6933C1222.25 39.09 1221.76 39.1002 1221.52 38.7159C1221.46 38.6251 1221.42 38.5255 1221.36 38.4162Z" fill="#040037"/>
<path d="M1209.54 34.5686C1209.24 34.5686 1208.97 34.5686 1208.69 34.5686C1208.69 34.1556 1208.69 33.7587 1208.69 33.3484C1210.04 33.3484 1211.4 33.3484 1212.76 33.3484C1212.76 33.7514 1212.76 34.1469 1212.76 34.5669C1212.3 34.5669 1211.85 34.5669 1211.38 34.5669C1211.38 35.9945 1211.38 37.3978 1211.38 38.8098C1210.94 38.8098 1210.52 38.8098 1210.08 38.8098C1210.08 37.3964 1210.08 35.9934 1210.08 34.5686C1209.89 34.5686 1209.73 34.5686 1209.54 34.5686Z" fill="#040037"/>
<path d="M1203.12 33.3353C1203.7 33.3353 1204.26 33.3353 1204.82 33.3353C1204.82 33.7517 1204.82 34.1472 1204.82 34.5653C1204.37 34.5653 1203.91 34.5653 1203.44 34.5653C1203.44 35.9901 1203.44 37.3928 1203.44 38.8077C1203 38.8077 1202.58 38.8077 1202.14 38.8077C1202.14 37.3985 1202.14 35.996 1202.14 34.5717C1201.67 34.5717 1201.22 34.5717 1200.75 34.5717C1200.75 34.1547 1200.75 33.7594 1200.75 33.3353C1201.54 33.3353 1202.32 33.3353 1203.12 33.3353Z" fill="#040037"/>
<path d="M71.3763 18.5017C71.1487 18.0728 70.8919 18.1222 70.6621 18.1222H67.6398C67.3875 18.1222 67.2782 18.1005 67.4294 18.4089C67.523 18.5998 67.9804 19.4413 67.9804 19.4413C68.083 19.6524 68.0373 19.6569 67.9482 19.8014C67.8816 19.9085 62.7225 28.572 62.2734 29.2892C61.9162 29.8597 61.8009 29.9757 62.3722 29.9757H63.0797C63.4083 29.9757 63.4562 29.9802 63.8298 29.3558C64.032 29.0204 65.548 26.5416 65.548 26.5416H71.5261C71.6923 26.5416 71.7911 26.6801 71.824 26.7385C72.1901 27.434 72.7531 28.5024 73.1514 29.2525C73.3902 29.7055 73.5654 29.9682 73.8911 29.9682H76.8865C77.4554 29.9682 77.4352 29.9622 76.9973 29.1709C76.4298 28.14 72.1647 19.9856 71.3771 18.5017M66.1215 25.361L68.5381 21.2149C68.7598 20.8061 68.7291 20.8915 68.9005 21.2149C68.9836 21.3766 71.1038 25.3587 71.1038 25.3587L66.1215 25.361Z" fill="#040037"/>
<path d="M53.7903 18.1248H51.6641C50.0245 19.3961 49.9654 19.423 44.0143 23.9509V18.4468C44.0143 18.2648 43.8676 18.1188 43.6864 18.1188H40.5989C40.4185 18.1188 40.271 18.2648 40.271 18.4468V29.6385C40.271 29.8189 40.4185 29.9671 40.5989 29.9671H43.6864C43.8676 29.9671 44.0143 29.8189 44.0143 29.6385V24.8111C44.9172 25.7073 49.8254 29.9701 49.8254 29.9701H53.8667C54.1736 29.9701 54.1736 29.8077 53.9138 29.5891C50.2821 26.5091 48.3198 24.8059 47.5465 24.1253C47.1976 23.8191 47.0217 23.7353 47.2874 23.5204C47.6573 23.221 53.6593 18.5194 53.8225 18.3547C53.9865 18.1907 53.7903 18.1248 53.7903 18.1248Z" fill="#040037"/>
<path d="M59.5316 18.1184H56.474C56.2831 18.1184 56.1289 18.2644 56.1289 18.4464V29.6381C56.1289 29.8185 56.2831 29.9668 56.474 29.9668H59.5316C59.7217 29.9668 59.8767 29.8185 59.8767 29.6381V18.4471C59.8767 18.2652 59.7217 18.1192 59.5316 18.1192" fill="#040037"/>
<path d="M96.9356 18.1184H93.8781C93.6872 18.1184 93.5337 18.2644 93.5337 18.4464V29.6381C93.5337 29.8185 93.6872 29.9668 93.8781 29.9668H96.9356C97.1258 29.9668 97.2807 29.8185 97.2807 29.6381V18.4471C97.2807 18.2652 97.1258 18.1192 96.9356 18.1192" fill="#040037"/>
<path d="M88.3185 23.6703C88.844 23.4404 90.9807 23.2548 90.9807 20.8868C90.9807 18.1586 88.0048 18.1789 87.316 18.1137L79.8609 18.1152C79.6782 18.1152 79.5337 18.2732 79.5337 18.4536V29.6543C79.5337 29.8363 79.6782 29.9688 79.8609 29.9688L86.5449 29.965C87.6297 29.965 91.3775 29.5855 91.4733 26.7944C91.5609 24.264 88.844 23.8679 88.3185 23.6703ZM83.5667 23.1814V19.3879H85.0536V19.3962C86.5434 19.3879 87.1977 20.3402 87.1977 21.3899C87.1977 22.4395 86.4131 23.3933 85.0536 23.3858V23.3933H83.5667V23.1814ZM85.2954 29.0629V29.0719H83.566V24.4159H85.2954V24.4272C87.0742 24.4159 87.8581 25.5255 87.8581 26.745C87.8581 27.9646 86.9185 29.0719 85.2954 29.0629Z" fill="#040037"/>
<path d="M34.6421 20.8597C34.6421 17.6396 32.0316 15.0291 28.8115 15.0291C27.8077 15.0291 26.8632 15.2828 26.0388 15.7296C25.3271 15.2858 24.4862 15.0291 23.586 15.0291H20.6444C18.0789 15.0291 16 17.108 16 19.6727V28.4479C16 31.0126 18.0789 33.0916 20.6436 33.0916H23.586C24.4712 33.0916 25.2985 32.8438 26.0028 32.4136C26.8189 32.8461 27.7499 33.0916 28.7379 33.0916C31.9685 33.0916 34.5881 30.4721 34.5881 27.2414C34.5881 26.0799 34.2494 24.9981 33.6661 24.0881C34.2825 23.1639 34.6414 22.0535 34.6414 20.859L34.6421 20.8597Z" fill="#040037"/>
<path d="M28.8117 18.0734C28.859 18.0734 28.9063 18.0749 28.9536 18.0771C29.6526 18.1117 30.3178 18.4105 30.8103 18.9083C31.9005 20.0089 31.8975 21.7252 30.8006 22.8221L29.549 24.0737L30.727 25.2524C31.8246 26.3501 31.8246 28.1362 30.727 29.2339C30.1781 29.7827 29.4581 30.0575 28.7366 30.0575C28.0151 30.0575 27.2951 29.7827 26.7463 29.2339L25.1321 27.6189V28.4485C25.1321 29.3037 24.4391 29.9967 23.5847 29.9967H20.6416C19.7872 29.9967 19.0942 29.3037 19.0942 28.4485V19.6726C19.0942 18.8182 19.7872 18.1244 20.6416 18.1244H23.5847C24.4391 18.1244 25.1321 18.8174 25.1321 19.6726V22.0113L23.7446 23.3995V19.9736C23.7446 19.7191 23.5382 19.5126 23.2836 19.5126H20.9427C20.6882 19.5126 20.4817 19.7184 20.4817 19.9736V28.146C20.4817 28.4005 20.6882 28.607 20.9427 28.607H23.2844C23.5382 28.607 23.7446 28.4005 23.7446 28.146V24.2659L27.7283 28.2511C28.0061 28.5296 28.3717 28.6685 28.7374 28.6685C29.103 28.6685 29.4679 28.5296 29.7464 28.2511C30.3028 27.6948 30.3028 26.7893 29.7464 26.233L27.5872 24.0729L29.8193 21.8393C30.3779 21.2808 30.3779 20.4384 29.8193 19.8798C29.5497 19.6102 29.1916 19.4616 28.8102 19.4616C28.8027 19.4616 28.7944 19.4616 28.7869 19.4616C28.4093 19.4676 28.0504 19.6313 27.7824 19.8986L27.3582 20.3227C27.2223 20.4586 27.0451 20.5262 26.8672 20.5262C26.6892 20.5262 26.512 20.4586 26.3761 20.3227C26.1051 20.0517 26.1051 19.6125 26.3761 19.3415L26.8199 18.8977C27.3514 18.3662 28.0587 18.0726 28.8102 18.0726" fill="white"/>
<g clip-path="url(#clip1_1133_97)">
<path d="M1240 47.9999L1240 940L1107.19 940L1107.19 913.766C1107.19 831.541 1084.17 754.686 1044.2 689.269C1084.38 613.461 1107.19 526.983 1107.19 435.204C1107.19 283.645 1045.11 146.568 944.994 47.9999L1240 47.9999Z" fill="#E2E1EB"/>
</g>
</g>
<defs>
<clipPath id="clip0_1133_97">
<rect width="1240" height="940" fill="white"/>
</clipPath>
<clipPath id="clip1_1133_97">
<rect width="892" height="1585" fill="white" transform="translate(-345 940) rotate(-90)"/>
</clipPath>
</defs>
</svg>
